<svg width="103" height="103" viewBox="0 0 103 103" fill="none" xmlns="http://www.w3.org/2000/svg">
<path d="M86.6005 37.249C86.6005 37.249 87.9845 11.2415 67.3765 6.09149C43.5497 0.1368 38.8583 22.9255 38.8583 22.9255C38.8583 22.9255 29.5642 21.1633 23.7785 27.4479C18.9262 32.7186 19.3849 37.8766 19.3849 37.8766C19.3849 37.8766 12.9796 36.4926 7.9503 40.8942C2.921 45.2959 3.67741 49.432 3.67741 49.432L18.6285 55.2096C18.6285 55.2096 94.1323 55.5878 94.5105 55.3384C94.8887 55.0889 99.5398 47.7984 99.5398 47.7984C99.5398 47.7984 98.7834 41.5138 94.3898 39.0032C89.9882 36.4926 86.6005 37.249 86.6005 37.249Z" fill="#E2EBEE"/>
<path d="M11.4668 59.1043C15.2327 59.2331 39.8642 59.732 54.8072 59.6032C69.7503 59.4745 92.4747 59.7159 95.629 58.2272C98.0994 57.0604 99.572 55.1291 99.8054 52.4254C100.031 49.8424 99.5318 47.7984 99.5318 47.7984C99.5318 47.7984 96.0153 50.3413 89.3525 50.4378C85.2083 50.4941 76.7913 49.8102 78.4248 48.3054C78.8835 47.8789 85.3934 42.9462 85.0796 38.3836C85.0072 37.3053 79.1732 42.6565 73.645 44.9177C68.1168 47.1788 62.8702 48.925 55.5636 48.4583C49.4078 48.0559 46.7362 45.5534 46.7362 45.5534C46.7362 45.5534 43.7669 49.0377 34.8429 49.786C25.919 50.5424 23.9958 47.1869 23.9958 47.1869C23.9958 47.1869 19.6746 50.4539 12.4163 50.3574C5.17411 50.2447 3.74981 47.6375 3.74981 47.6375C3.74981 47.6375 3.06583 52.2806 4.57864 54.9923C6.12364 57.7524 8.932 59.0238 11.4668 59.1043Z" fill="#B9CED2"/>
<path d="M56.3201 65.6384C54.9441 65.1556 50.0355 69.0422 47.8226 72.8806C45.6017 76.735 47.0501 79.5514 49.4239 80.7102C52.0955 82.0138 55.9419 81.2091 57.0363 77.4109C58.1146 73.6531 57.8007 66.1614 56.3201 65.6384ZM30.3046 63.7232C29.0573 63.2806 25.0097 67.0385 23.1911 69.0663C20.7529 71.7942 18.8699 76.8798 23.4969 78.9398C28.156 81.0079 31.1817 77.6202 31.415 72.9369C31.6403 68.5755 31.3346 64.0934 30.3046 63.7232ZM40.1298 81.7965C38.8021 81.0803 33.2256 86.0291 31.4472 88.9824C29.6769 91.9356 29.7896 95.7256 33.4107 97.2787C37.0317 98.8317 40.2264 96.8441 40.8942 91.67C41.361 88.0006 41.4092 82.4885 40.1298 81.7965ZM67.0949 82.223C66.1373 81.6838 59.5067 86.8016 58.018 90.5274C55.0648 97.9224 65.1556 101.222 67.4489 94.2691C68.7847 90.2135 68.2778 82.8909 67.0949 82.223ZM83.5829 66.2821C82.2713 65.4774 76.7592 70.0159 74.9245 73.4277C72.607 77.7409 74.4095 80.9918 76.9362 82.0218C79.5595 83.084 82.9311 82.062 84.0738 78.1754C85.7234 72.5748 84.8543 67.0707 83.5829 66.2821Z" fill="#4FC4F8"/>
<path d="M77.5719 73.299C76.7028 73.4036 75.6245 74.6428 75.4555 76.7591C75.2866 78.8755 76.6223 79.9457 77.9742 79.4066C79.2456 78.8996 79.4548 77.089 79.4548 75.9464C79.4548 74.8037 78.9157 73.13 77.5719 73.299ZM50.6953 72.6311C49.778 72.3736 48.072 73.7898 47.7743 76.0832C47.5409 77.8535 48.2249 78.9237 49.6009 79.0283C51.5161 79.1732 52.1196 76.8155 52.0713 75.3751C52.0391 74.5543 51.8943 72.9691 50.6953 72.6311ZM34.159 88.3466C33.306 88.2823 31.8737 89.7146 31.8737 91.9436C31.8737 94.1726 33.0324 95.1382 34.4004 94.8405C35.7684 94.5347 36.042 91.9194 35.9534 90.8814C35.8649 89.8433 35.4223 88.4432 34.159 88.3466ZM24.8729 71.1666C23.7222 70.8366 22.2496 72.2931 22.0726 73.9347C21.8875 75.5762 22.652 76.7672 23.867 76.9523C25.0821 77.1373 26.1202 75.6728 26.2409 73.9669C26.3696 72.2609 25.9431 71.4643 24.8729 71.1666ZM61.4781 89.2962C60.4159 89.2076 58.8951 90.7768 58.9353 93.1506C58.9755 95.5244 60.2067 95.9268 61.0195 95.9751C62.1863 96.0475 62.999 94.6715 63.1036 92.5149C63.1921 90.7044 62.7817 89.4008 61.4781 89.2962Z" fill="#AEE6FD"/>
</svg>
